<?xml version="1.0" encoding="UTF-8" ?>
<!DOCTYPE svg PUBLIC "-//W3C//DTD SVG 1.1//EN" "http://www.w3.org/Graphics/SVG/1.1/DTD/svg11.dtd">
<svg width="1476pt" height="551pt" viewBox="0 0 1476 551" version="1.1" xmlns="http://www.w3.org/2000/svg">
<g id="#ffffffff">
<path fill="#ffffff" opacity="1.00" d=" M 1276.52 292.73 C 1293.79 289.51 1312.19 292.73 1327.27 301.76 C 1343.61 311.38 1355.97 327.54 1360.81 345.89 C 1365.37 362.74 1363.64 381.22 1355.96 396.90 C 1348.63 412.07 1335.90 424.54 1320.60 431.58 C 1303.63 439.48 1283.59 440.47 1265.92 434.30 C 1249.13 428.57 1234.66 416.46 1225.96 401.01 C 1216.19 383.94 1213.84 362.87 1219.47 344.04 C 1226.93 318.05 1249.87 297.37 1276.52 292.73 Z" />
</g>
<g id="#650199ff">
<path fill="#650199" opacity="1.00" d=" M 538.64 0.00 L 546.47 0.00 C 567.01 1.15 586.88 11.26 599.62 27.46 C 610.11 40.50 615.81 57.26 615.50 73.99 C 615.32 90.74 609.12 107.37 598.20 120.09 C 587.07 133.30 571.09 142.34 554.00 144.96 C 538.60 147.43 522.42 144.81 508.63 137.52 C 493.17 129.47 480.81 115.66 474.53 99.40 C 468.90 85.05 468.04 68.89 472.05 54.01 C 476.09 38.64 485.44 24.76 498.04 15.09 C 509.63 6.07 524.01 0.92 538.64 0.00 Z" />
<path fill="#650199" opacity="1.00" d=" M 65.59 180.54 C 82.65 173.39 103.68 179.52 114.85 194.08 C 118.47 198.47 120.60 203.80 123.15 208.83 C 153.58 269.87 183.90 330.96 214.30 392.01 C 214.64 392.02 215.32 392.03 215.66 392.04 C 246.64 329.90 277.56 267.72 308.53 205.57 C 310.69 200.91 313.10 196.30 316.57 192.46 C 327.97 179.04 348.07 173.70 364.44 180.52 C 379.04 186.90 393.51 193.56 408.09 199.97 C 421.40 206.50 430.49 221.08 430.06 235.97 C 430.02 243.89 427.31 251.57 423.34 258.34 C 373.78 346.11 324.25 433.91 274.69 521.69 C 266.39 536.60 250.04 546.63 232.99 547.24 C 222.32 547.28 211.65 547.22 200.98 547.26 C 184.98 547.93 168.90 540.26 159.26 527.49 C 156.15 523.49 153.90 518.91 151.37 514.54 C 102.92 428.69 54.45 342.86 6.00 257.01 C 2.74 251.21 0.64 244.77 0.00 238.14 L 0.00 231.82 C 1.52 218.22 10.15 205.40 22.69 199.67 C 37.03 193.37 51.25 186.82 65.59 180.54 Z" />
<path fill="#650199" opacity="1.00" d=" M 717.21 182.10 C 732.79 173.97 753.09 177.10 765.66 189.32 C 770.34 193.62 773.86 199.04 776.40 204.84 C 796.87 245.99 817.31 287.16 837.82 328.30 C 848.53 349.62 858.91 371.12 869.84 392.32 C 870.19 392.05 870.91 391.51 871.27 391.23 C 903.15 327.42 934.87 263.53 966.68 199.69 C 976.38 181.75 999.78 172.61 1018.89 180.21 C 1033.68 186.59 1048.28 193.40 1063.04 199.85 C 1075.92 206.03 1084.86 219.69 1085.30 233.98 C 1085.60 242.38 1083.01 250.67 1078.81 257.87 C 1030.13 344.15 981.42 430.41 932.73 516.68 C 930.92 519.83 929.23 523.06 927.13 526.03 C 917.75 539.44 901.43 547.77 885.05 547.26 C 874.04 547.22 863.03 547.29 852.02 547.23 C 836.25 546.54 821.01 537.87 812.42 524.61 C 809.63 520.24 807.25 515.63 804.66 511.15 C 757.65 427.88 710.67 344.60 663.65 261.33 C 659.78 254.79 656.33 247.79 655.49 240.14 C 653.09 222.95 663.80 205.07 679.91 198.79 C 692.36 193.26 704.77 187.65 717.21 182.10 Z" />
<path fill="#650199" opacity="1.00" d=" M 1237.12 186.39 C 1275.12 175.16 1316.71 176.43 1353.91 190.11 C 1388.85 202.83 1419.71 226.37 1441.30 256.63 C 1462.67 286.22 1474.73 322.24 1476.00 358.69 L 1476.00 370.61 C 1474.89 405.83 1463.68 440.68 1443.72 469.75 C 1422.85 500.41 1392.63 524.61 1358.09 538.14 C 1338.48 545.95 1317.50 550.07 1296.44 551.00 L 1284.38 551.00 C 1257.71 550.13 1231.21 543.67 1207.31 531.76 C 1174.90 515.75 1147.38 490.06 1129.16 458.85 C 1108.56 423.94 1100.13 382.17 1105.14 341.99 C 1109.94 302.12 1128.22 264.05 1156.30 235.35 C 1178.41 212.42 1206.56 195.38 1237.12 186.39 M 1276.52 292.73 C 1249.87 297.37 1226.93 318.05 1219.47 344.04 C 1213.84 362.87 1216.19 383.94 1225.96 401.01 C 1234.66 416.46 1249.13 428.57 1265.92 434.30 C 1283.59 440.47 1303.63 439.48 1320.60 431.58 C 1335.90 424.54 1348.63 412.07 1355.96 396.90 C 1363.64 381.22 1365.37 362.74 1360.81 345.89 C 1355.97 327.54 1343.61 311.38 1327.27 301.76 C 1312.19 292.73 1293.79 289.51 1276.52 292.73 Z" />
<path fill="#650199" opacity="1.00" d=" M 514.54 183.67 C 517.96 182.93 521.48 182.64 524.99 182.67 C 537.64 182.71 550.30 182.65 562.95 182.70 C 575.43 182.94 587.64 188.75 595.74 198.23 C 602.85 206.37 606.82 217.16 606.70 227.96 C 606.69 316.33 606.69 404.70 606.69 493.07 C 606.63 500.10 607.17 507.29 605.13 514.13 C 601.52 527.67 591.18 539.19 578.09 544.20 C 572.37 546.51 566.17 547.37 560.03 547.32 C 547.35 547.26 534.67 547.43 522.00 547.23 C 503.66 546.70 486.59 533.63 481.20 516.11 C 478.34 508.02 479.16 499.36 479.06 490.96 C 479.06 406.63 479.06 322.31 479.06 237.99 C 479.14 230.24 478.46 222.31 480.89 214.81 C 485.34 199.34 498.75 186.89 514.54 183.67 Z" />
</g>
</svg>
